<svg width="184" height="148" viewBox="0 0 184 148" fill="none" xmlns="http://www.w3.org/2000/svg">
<g clip-path="url(#clip0_0_78)">
<path d="M101.32 0C134.192 0 161.051 26.6 161.051 59.6V114H41.5898V59.6C41.5898 26.6 68.4486 0 101.32 0Z" fill="url(#paint0_linear_0_78)"/>
<path d="M55.0192 56.6001C85.0849 56.6001 109.538 81.0001 109.538 111V129.2H0.5V111C0.5 81.0001 24.9535 56.6001 55.0192 56.6001Z" fill="url(#paint1_linear_0_78)"/>
<path d="M123.97 36.2002C156.842 36.2002 183.5 62.8002 183.5 95.6002V148H64.4398V95.6002C64.4398 62.8002 91.098 36.2002 123.97 36.2002Z" fill="url(#paint2_linear_0_78)"/>
</g>
<defs>
<linearGradient id="paint0_linear_0_78" x1="101.32" y1="95.6" x2="101.32" y2="-18.4" gradientUnits="userSpaceOnUse">
<stop stop-color="#95A7CA" stop-opacity="0"/>
<stop offset="0.13" stop-color="#95A7CA" stop-opacity="0.09"/>
<stop offset="0.39" stop-color="#95A7CA" stop-opacity="0.34"/>
<stop offset="0.75" stop-color="#95A7CA" stop-opacity="0.72"/>
<stop offset="1" stop-color="#96A8CA"/>
</linearGradient>
<linearGradient id="paint1_linear_0_78" x1="55.0192" y1="129.2" x2="55.0192" y2="56.6001" gradientUnits="userSpaceOnUse">
<stop stop-color="#95A7CA" stop-opacity="0"/>
<stop offset="0.13" stop-color="#95A7CA" stop-opacity="0.09"/>
<stop offset="0.39" stop-color="#95A7CA" stop-opacity="0.34"/>
<stop offset="0.75" stop-color="#95A7CA" stop-opacity="0.72"/>
<stop offset="1" stop-color="#96A8CA"/>
</linearGradient>
<linearGradient id="paint2_linear_0_78" x1="123.97" y1="148" x2="123.97" y2="36.2002" gradientUnits="userSpaceOnUse">
<stop stop-color="#95A7CA" stop-opacity="0"/>
<stop offset="0.13" stop-color="#95A7CA" stop-opacity="0.09"/>
<stop offset="0.39" stop-color="#95A7CA" stop-opacity="0.34"/>
<stop offset="0.75" stop-color="#95A7CA" stop-opacity="0.72"/>
<stop offset="1" stop-color="#96ACCA"/>
</linearGradient>
<clipPath id="clip0_0_78">
<rect width="183" height="148" fill="white" transform="translate(0.5)"/>
</clipPath>
</defs>
</svg>
