<svg width="48" height="49" viewBox="0 0 48 49" fill="none" xmlns="http://www.w3.org/2000/svg">
<path d="M36.3634 47.0155C38.0784 47.0168 39.7669 46.5934 41.2784 45.7832C42.7898 44.9729 44.0772 43.8011 45.0255 42.3722C45.9738 40.9434 46.5536 39.3019 46.713 37.5944C46.8725 35.8869 46.6068 34.1665 45.9395 32.5867C45.2722 31.007 44.2241 29.617 42.8889 28.5409C41.5536 27.4648 39.9726 26.736 38.2872 26.4196C36.6017 26.1033 34.8641 26.2092 33.2295 26.7278C31.5949 27.2465 30.1141 28.1618 28.9194 29.3921C28.2173 26.9132 26.8377 24.6793 24.9356 22.9415C23.0336 21.2037 20.6844 20.0309 18.1524 19.555C15.6203 19.0791 13.0057 19.3189 10.6025 20.2475C8.19926 21.176 6.10268 22.7566 4.54847 24.8114C2.99425 26.8662 2.04401 29.3138 1.80457 31.879C1.56514 34.4442 2.046 37.0254 3.19311 39.3323C4.34021 41.6393 6.10807 43.5805 8.29795 44.9378C10.4878 46.2951 13.0129 47.0146 15.5893 47.0155H36.3634Z" stroke="#00FF77" stroke-width="2" stroke-linecap="round" stroke-linejoin="round"/>
<path d="M36.2942 4.42869C32.4592 2.80987 28.3387 1.97583 24.176 1.97583C20.0133 1.97583 15.8928 2.80987 12.0577 4.42869" stroke="#00FF77" stroke-width="2" stroke-linecap="round" stroke-linejoin="round"/>
<path d="M31.793 11.9074C26.8983 10.2454 21.5919 10.2454 16.6971 11.9074" stroke="#00FF77" stroke-width="2" stroke-linecap="round" stroke-linejoin="round"/>
</svg>
