<svg width="30" height="39" viewBox="0 0 30 39" fill="none" xmlns="http://www.w3.org/2000/svg">
<path d="M7.57036 1L1.37957 15.8283C1.29395 16.0399 1.26082 16.2695 1.28312 16.4971C1.30541 16.7246 1.38243 16.9432 1.50742 17.1334C1.63241 17.3237 1.80153 17.4799 1.99993 17.5883C2.19833 17.6967 2.41992 17.754 2.64525 17.7552H10.3218L4.8189 37.3029L28.454 14.5717C28.6503 14.3797 28.786 14.1328 28.8438 13.8624C28.9016 13.592 28.879 13.3102 28.7788 13.0529C28.6785 12.7956 28.5052 12.5743 28.2808 12.4171C28.0564 12.2599 27.7911 12.174 27.5185 12.1701H17.2005L22.7034 1H7.57036Z" stroke="#00FF77" stroke-width="2" stroke-linecap="round" stroke-linejoin="round"/>
</svg>
