<svg width="63" height="52" viewBox="0 0 63 52" fill="none" xmlns="http://www.w3.org/2000/svg">
<path d="M34.8718 0.387547C46.1231 0.387547 55.3162 9.53212 55.3162 20.8769V39.5786H14.4275V20.8769C14.4275 9.53212 23.6206 0.387547 34.8718 0.387547Z" fill="url(#paint0_linear_0_73)"/>
<path d="M19.024 19.8456C29.3148 19.8456 37.6847 28.2338 37.6847 38.5472V44.8041H0.363373V38.5472C0.363373 28.2338 8.73322 19.8456 19.024 19.8456Z" fill="url(#paint1_linear_0_73)"/>
<path d="M42.6242 12.8324C53.8755 12.8324 63 21.977 63 33.253V51.2671H22.2485V33.253C22.2485 21.977 31.373 12.8324 42.6242 12.8324Z" fill="url(#paint2_linear_0_73)"/>
<defs>
<linearGradient id="paint0_linear_0_73" x1="34.8718" y1="33.253" x2="34.8718" y2="-5.93803" gradientUnits="userSpaceOnUse">
<stop stop-color="white" stop-opacity="0"/>
<stop offset="0.11" stop-color="white" stop-opacity="0.07"/>
<stop offset="0.32" stop-color="white" stop-opacity="0.27"/>
<stop offset="0.62" stop-color="white" stop-opacity="0.58"/>
<stop offset="1" stop-color="white"/>
</linearGradient>
<linearGradient id="paint1_linear_0_73" x1="19.024" y1="44.8041" x2="19.024" y2="19.8456" gradientUnits="userSpaceOnUse">
<stop stop-color="white" stop-opacity="0"/>
<stop offset="1" stop-color="white"/>
</linearGradient>
<linearGradient id="paint2_linear_0_73" x1="42.6242" y1="51.2671" x2="42.6242" y2="12.8324" gradientUnits="userSpaceOnUse">
<stop stop-color="white" stop-opacity="0"/>
<stop offset="1" stop-color="white"/>
</linearGradient>
</defs>
</svg>
