<svg width="177" height="177" viewBox="0 0 177 177" fill="none" xmlns="http://www.w3.org/2000/svg">
<path d="M83.9629 2.49773C86.5916 -0.0176957 90.7348 -0.0176917 93.3635 2.49774L105.245 13.867C106.922 15.4725 109.304 16.1105 111.56 15.559L127.534 11.6536C131.068 10.7895 134.656 12.8611 135.675 16.3539L140.279 32.1405C140.93 34.3698 142.673 36.113 144.902 36.7633L160.689 41.3681C164.182 42.3869 166.253 45.9749 165.389 49.5092L161.484 65.4832C160.932 67.739 161.57 70.1202 163.176 71.7981L174.545 83.6792C177.06 86.3079 177.06 90.4511 174.545 93.0798L163.176 104.961C161.57 106.639 160.932 109.02 161.484 111.276L165.389 127.25C166.253 130.784 164.182 134.372 160.689 135.391L144.902 139.996C142.673 140.646 140.93 142.389 140.279 144.619L135.675 160.405C134.656 163.898 131.068 165.97 127.534 165.105L111.56 161.2C109.304 160.648 106.922 161.287 105.245 162.892L93.3635 174.261C90.7348 176.777 86.5916 176.777 83.9629 174.261L72.0817 162.892C70.4039 161.287 68.0227 160.648 65.7669 161.2L49.7929 165.105C46.2586 165.97 42.6706 163.898 41.6518 160.405L37.047 144.619C36.3967 142.389 34.6535 140.646 32.4242 139.996L16.6375 135.391C13.1448 134.372 11.0732 130.784 11.9373 127.25L15.8427 111.276C16.3942 109.02 15.7562 106.639 14.1506 104.961L2.78142 93.0798C0.265996 90.4511 0.266 86.3079 2.78143 83.6792L14.1506 71.7981C15.7562 70.1202 16.3942 67.739 15.8427 65.4832L11.9373 49.5092C11.0732 45.975 13.1448 42.3869 16.6375 41.3681L32.4242 36.7633C34.6535 36.113 36.3967 34.3698 37.047 32.1405L41.6518 16.3538C42.6706 12.8611 46.2586 10.7895 49.7929 11.6536L65.7669 15.559C68.0227 16.1105 70.4039 15.4725 72.0817 13.867L83.9629 2.49773Z" fill="#00FF77"/>
</svg>
