<svg width="57" height="28" viewBox="0 0 57 28" fill="none" xmlns="http://www.w3.org/2000/svg">
<path d="M20.3894 24.4111C18.6386 25.9083 16.4197 26.7497 14.1144 26.7907C12.4261 26.9523 10.7228 26.7393 9.12663 26.1671C7.53042 25.5948 6.08075 24.6774 4.88143 23.4805C3.68212 22.2837 2.76283 20.837 2.1894 19.2441C1.61597 17.6511 1.40258 15.9513 1.56452 14.2665C1.40258 12.5816 1.61597 10.8818 2.1894 9.28888C2.76283 7.69594 3.68212 6.24924 4.88143 5.05239C6.08075 3.85553 7.53042 2.93813 9.12663 2.36587C10.7228 1.79361 12.4261 1.58066 14.1144 1.74227C25.6185 1.74227 31.8935 26.7907 43.3976 26.7907C45.0859 26.9523 46.7892 26.7393 48.3854 26.1671C49.9816 25.5948 51.4313 24.6774 52.6306 23.4805C53.8299 22.2837 54.7492 20.837 55.3226 19.2441C55.8961 17.6511 56.1094 15.9513 55.9475 14.2665C56.1094 12.5816 55.8961 10.8818 55.3226 9.28888C54.7492 7.69594 53.8299 6.24924 52.6306 5.05239C51.4313 3.85553 49.9816 2.93813 48.3854 2.36587C46.7892 1.79361 45.0859 1.58066 43.3976 1.74227C41.1647 1.83061 39.0272 2.66915 37.3318 4.12187" stroke="#00FF77" stroke-width="2" stroke-linecap="round" stroke-linejoin="round"/>
</svg>
